<svg xmlns:dc="http://purl.org/dc/elements/1.1/" xmlns:cc="http://creativecommons.org/ns#" xmlns:rdf="http://www.w3.org/1999/02/22-rdf-syntax-ns#" xmlns:svg="http://www.w3.org/2000/svg" xmlns="http://www.w3.org/2000/svg" xmlns:sodipodi="http://sodipodi.sourceforge.net/DTD/sodipodi-0.dtd" xmlns:inkscape="http://www.inkscape.org/namespaces/inkscape" width="100" height="100" viewBox="0 0 80 80" version="1.1" id="svg2" inkscape:version="0.48.2 r9819" sodipodi:docname="blank.svg">
  <metadata id="metadata10">
    <rdf:RDF>
      <cc:Work rdf:about="">
        <dc:format>image/svg+xml</dc:format>
        <dc:type rdf:resource="http://purl.org/dc/dcmitype/StillImage"/>
        <dc:title/>
      </cc:Work>
    </rdf:RDF>
  </metadata>
  <defs id="defs8"/>
  <sodipodi:namedview pagecolor="#ffffff" bordercolor="#666666" borderopacity="1" objecttolerance="10" gridtolerance="10" guidetolerance="10" inkscape:pageopacity="0" inkscape:pageshadow="2" inkscape:window-width="1366" inkscape:window-height="706" id="namedview6" showgrid="false" inkscape:zoom="2.6700352" inkscape:cx="62.5" inkscape:cy="62.5" inkscape:window-x="-8" inkscape:window-y="-8" inkscape:window-maximized="1" inkscape:current-layer="svg2"/>
  <g id="g3001" transform="matrix(0.10790966,0,0,0.10790966,0.70140548,-14.406964)">
    <path sodipodi:nodetypes="ccccccccccsccccs" inkscape:connector-curvature="0" id="path4" d="m 212.37542,156.51101 c -9.95632,3.19702 -82.44459,-4.88694 -96.21271,-1.79406 -1,-4.7 -3.5,-10.2 -8.7,-11.4 -27.090673,-5.12707 -58.348645,3.85491 -86.699998,1.8 l 0,523 c 5.4,0 10.9,-0.3 16.3,0.4 68.444628,8.30032 90.153918,-114.54776 84.099998,-165.1 24.55663,0 48.50487,0.89096 73.5,2.2 28.76687,0.1856 18.31147,-41.93116 19.9,-80.7 1.32856,-121.61917 -0.086,-155.69892 -2.18729,-268.40594 z m -66.53771,10.83094 c 24.40562,-0.13815 49.625,4.225 49.625,4.225 0,0 11.6733,209.49973 5.875,317.85 -19.53003,10.11545 -80,-0.725 -80,-0.725 0,0 -24.332,-40.98695 -2.2,-318.6 7.73887,-1.96784 17.14998,-2.69595 26.7,-2.75 z" style="fill:#000000;stroke:none"/>
    <path sodipodi:nodetypes="sccccccccccccccccccccccccccccs" inkscape:connector-curvature="0" style="fill:#000000;stroke:none" d="m 529.38844,866.50345 c -3.58984,-0.1357 -7.16251,-0.9375 -10.225,-2.875 -2.2,-2.1 -4,-4.7 -5.2,-7.5 -2.4,-9 -4.7,-18.2 -5.6,-27.5 -5.12928,-39.9275 -14.49476,-72.4039 -36.2,-106.8 -40.51205,-69.43599 -64.81214,-135.63459 -114.7,-199.50003 -59.80427,-71.50096 -146.85,-89.175 -146.85,-89.175 l -0.54033,-265.25464 c 162.07824,-3.98491 327.0767,-63.52937 420.49033,4.52964 15.74993,9.71861 21.88313,41.6786 17,61.3 -0.5,0.2 -1.5,0.4 -1.9,0.6 l 0.3,0.6 c 49.43887,5.84529 59.47225,58.22508 38,85.8 29.11617,12.35712 35.23656,62.45044 8.1,84.7 -0.1,0.3 -0.1,1 -0.1,1.3 42.4436,13.33945 33.17861,73.34257 11,88.6 -62.05905,18.85108 -124.94131,5.44874 -181.9,32.1 -3.1,0.3 -5.7,3 -6,6.1 -1.4,8.1 -3.8,16.2 -2.7,24.4 0.7,4.5 -0.2,9.4 2.5,13.2 0.1,8 2.8,15.6 4.5,23.4 8.74248,49.24904 46.96109,88.12639 48.4,141.50003 0,7.7 0.7,15.4 0.1,23.1 -1,9.3 -2.3,18.7 -1.9,28 0.1,4.2 0.1,8.5 -1,12.6 -1.3,4 -0.1,8.3 -1.6,12.3 -0.6,10.6 -3.2,21 -4,31.6 -2.8,4.9 -5.4,9.9 -8.9,14.2 -4.4,3.5 -8.9,7.6 -14.7,8.3 -2.0625,0.3 -4.2211,0.4564 -6.375,0.375 z" id="path2982"/>
  </g>
</svg>