<svg xmlns="http://www.w3.org/2000/svg" xmlns:xlink="http://www.w3.org/1999/xlink" version="1.1" id="question-layer" x="0px" y="0px" width="100px" height="100px" viewBox="0 0 100 100" style="enable-background:new 0 0 100 100;" xml:space="preserve">
<rect id="frame_70_" style="fill:none;" width="100" height="100"/>
<path style="fill:#1D1D1B;" d="M41,69h15v14H41V69z M68.658,29.173c-0.676-1.96-1.795-3.761-3.331-5.354  c-1.532-1.589-3.568-2.896-6.056-3.886c-2.467-0.979-5.519-1.476-9.068-1.476c-2.343,0-4.566,0.265-6.617,0.787  c-2.03,0.525-3.888,1.206-5.522,2.024c-1.655,0.829-3.139,1.768-4.407,2.788c-1.275,1.027-2.361,2.045-3.184,3.064  c-0.826,1.025-2.263,2.891-2.263,4.757c0,3.346,2.713,6.061,6.061,6.061c0.914,0,1.822-0.124,2.555-0.57  c0.728-0.441,1.646-1.268,2.559-2.245c1.137-1.217,2.691-1.974,4.22-2.703c1.917-0.914,3.956-1.377,6.06-1.377  c1.877,0,3.269,0.449,4.136,1.333c0.891,0.91,1.322,1.854,1.322,2.889c0,0.511-0.107,0.987-0.328,1.446  c-0.277,0.571-0.631,1.115-1.054,1.623c-0.449,0.542-0.97,1.073-1.55,1.582c-0.631,0.557-1.248,1.088-1.863,1.598  c-1.334,1.12-2.538,2.244-3.578,3.339c-1.091,1.146-2.03,2.385-2.794,3.684C43.173,49.871,41,56.469,41,58.611V61h15v-2.389  c0-1.293,0.434-5.123,0.975-5.855c0.562-0.771,1.203-1.469,1.906-2.078c0.747-0.652,1.547-1.279,2.389-1.872  c0.963-0.696,1.938-1.468,2.898-2.296c1.02-0.879,1.938-1.87,2.734-2.95c0.82-1.111,1.488-2.398,1.981-3.824  c0.5-1.436,0.753-3.123,0.753-5.013C69.639,32.944,69.309,31.078,68.658,29.173z"/>
</svg>