<svg xmlns:dc="http://purl.org/dc/elements/1.1/" xmlns:cc="http://creativecommons.org/ns#" xmlns:rdf="http://www.w3.org/1999/02/22-rdf-syntax-ns#" xmlns:svg="http://www.w3.org/2000/svg" xmlns="http://www.w3.org/2000/svg" xmlns:sodipodi="http://sodipodi.sourceforge.net/DTD/sodipodi-0.dtd" xmlns:inkscape="http://www.inkscape.org/namespaces/inkscape" width="100" height="100" viewBox="0 0 80 80" version="1.1" id="svg2" inkscape:version="0.48.2 r9819" sodipodi:docname="approve.svg">
  <metadata id="metadata10">
    <rdf:RDF>
      <cc:Work rdf:about="">
        <dc:format>image/svg+xml</dc:format>
        <dc:type rdf:resource="http://purl.org/dc/dcmitype/StillImage"/>
        <dc:title/>
      </cc:Work>
    </rdf:RDF>
  </metadata>
  <defs id="defs8"/>
  <sodipodi:namedview pagecolor="#ffffff" bordercolor="#666666" borderopacity="1" objecttolerance="10" gridtolerance="10" guidetolerance="10" inkscape:pageopacity="0" inkscape:pageshadow="2" inkscape:window-width="1056" inkscape:window-height="658" id="namedview6" showgrid="false" inkscape:zoom="4.69" inkscape:cx="50" inkscape:cy="50" inkscape:window-x="0" inkscape:window-y="0" inkscape:window-maximized="0" inkscape:current-layer="svg2"/>
  <path style="fill:#000000;stroke:none" d="m 55.405146,0.93103143 c -0.297415,0.0112 -0.593408,0.0777 -0.847133,0.23818997 -0.182268,0.17399 -0.331397,0.3894 -0.430816,0.62137 -0.198838,0.74565 -0.389392,1.50786 -0.463956,2.27836 -0.424957,3.30796 -1.20088,5.9985996 -2.999143,8.8482996 -3.356392,5.75271 -5.369636,11.23722 -9.502808,16.52842 -4.954739,5.9238 -7.269171,7.86807 -12.166412,7.38808 -0.824873,0.26487 -5.110296,-0.36187 -6.250975,-0.10563 -0.08285,-0.38939 -0.289972,-0.84506 -0.720788,-0.94448 -2.244442,-0.42477 -4.834142,0.31938 -7.18303,0.14913 l 0,43.33015 c 0.447386,0 0.903057,-0.0249 1.350443,0.0331 5.670586,0.68768 7.469184,-9.49019 6.967621,-13.67841 2.034498,-1e-4 4.018592,0.0738 6.08942,0.18227 2.383313,0.0154 1.517091,-3.47396 1.6487,-6.68593 0.08285,-0.0829 0.190553,-0.0166 0.281687,-0.008 0.298257,0.0414 0.596515,0.008 0.886487,0.0994 0.463956,0.0829 0.903057,0.29826 1.367012,0.38111 10.191383,0.11267 20.610302,6.47492 30.355964,-1.15161 1.304869,-0.80518 1.813,-3.45304 1.408437,-5.07866 -0.04142,-0.0166 -0.124274,-0.0331 -0.157414,-0.0497 l 0.02485,-0.0497 c 4.095973,-0.48427 4.927231,-4.8239 3.148271,-7.10846 2.412254,-1.02378 2.919323,-5.17397 0.671079,-7.01733 -0.0083,-0.0249 -0.0083,-0.0829 -0.0083,-0.10771 3.516421,-1.10516 2.748823,-6.07637 0.911342,-7.34044 -5.141545,-1.5618 -10.351293,-0.45142 -15.070278,-2.65946 -0.256832,-0.0249 -0.47224,-0.24855 -0.497095,-0.50538 -0.115989,-0.67108 -0.314827,-1.34216 -0.223693,-2.02152 0.05799,-0.37282 -0.01657,-0.77878 0.207123,-1.09361 0.0083,-0.6628 0.231978,-1.29245 0.372822,-1.93867 0.724308,-4.08025 3.890691,-7.30121 4.009903,-11.72317 0,-0.63794 0.05799,-1.27588 0.0083,-1.9138196 -0.08285,-0.7705 -0.190553,-1.54928 -0.157413,-2.31978 0.0083,-0.34796 0.0083,-0.70422 -0.08285,-1.0439 -0.107704,-0.3314 -0.0083,-0.68765 -0.132559,-1.01904 -0.04971,-0.87821 -0.265117,-1.73984 -0.331397,-2.61804 -0.231977,-0.40596 -0.447385,-0.82021 -0.737358,-1.17646 -0.364536,-0.28997 -0.737358,-0.62965 -1.217884,-0.68764997 -0.170876,-0.0249 -0.349714,-0.0378 -0.528164,-0.0311 z M 25.202454,37.774091 c 2.021987,-0.0114 4.111394,0.35004 4.111394,0.35004 0,0 0.967124,17.35689 0.486739,26.33363 -1.618048,0.83806 -6.627939,-0.0601 -6.627939,-0.0601 0,0 -2.015888,-3.39574 -0.182268,-26.39577 0.641159,-0.16304 1.420862,-0.22336 2.212074,-0.22784 z" id="path4" inkscape:connector-curvature="0"/>
</svg>