<svg xmlns="http://www.w3.org/2000/svg" xmlns:xlink="http://www.w3.org/1999/xlink" version="1.1" id="Layer_1" x="0px" y="0px" width="100px" height="100px" viewBox="0 0 100 100" enable-background="new 0 0 100 100" xml:space="preserve">
<path d="M64.729,66.674c1.929,1.472,7.656,2.817,12.259,5.317c1.513,0.83,1.649,2.045,1.764,2.789  c0.115,0.736-1.309,9.017-1.309,9.017H36.048c0,0-1.408-8.28-1.292-9.017c0.115-0.744,0.124-1.862,1.763-2.789  c4.557-2.571,10.303-3.756,12.232-5.235c0.763-0.581,0.565-1.532,0.744-2.44c0.167-0.901,0.734-0.28,0.734-1.245  c0-0.973,0.187-0.805,0.071-2.1c-0.09-1.117-1.629-1.238-1.717-3.345c-0.016-0.442-0.793-0.733-1.25-1.417  c-0.458-0.683-1.192-1.87-1.192-3.239c0-1.359,0.283-1.023,0.283-2.727c0-1.703-0.062-2.686,0.909-6.636  c0.365-1.476,1.595-3.206,2.835-3.988c1.664-1.055,0.993,0.354,6.587-0.902c3.629-0.805,9.312,2.958,9.372,5.962  c0.07,4.074,0.329,3.768,0.566,5.452c0.168,1.191,0.515,0.91,0.515,2.277c0,1.36-0.741,3.062-1.196,3.742  c-0.45,0.687-0.878,1.777-0.929,2.221c-0.302,2.27-1.821,1.744-1.884,2.96c-0.053,1.117-0.126,0.975,0.034,1.84  c0.144,0.727,0.565-0.048,0.733,0.864C64.136,64.94,64.021,66.278,64.729,66.674z"/>
<g>
	<path d="M74.641,58.956c0.321,0.477,0.862,0.679,0.869,0.991c0.063,1.464,1.143,1.548,1.202,2.338   c0.084,0.897-0.052,0.778-0.052,1.453c0,0.673-0.398,0.242-0.514,0.87c-0.115,0.635,0.02,1.293-0.514,1.707   c-0.602,0.46-1.741,0.896-3.104,1.39c1.958,0.724,4.113,1.581,6.14,2.643c2.188,1.139,2.234,2.553,2.401,3.649   c0.063,0.392,0.133,2.213,0.206,4.204h14.088c0,0,1.268-5.776,1.19-6.293c-0.084-0.518-0.136-1.346-1.223-1.944   c-3.206-1.753-7.206-2.679-8.552-3.708c-0.495-0.279-0.419-1.208-0.53-1.845c-0.126-0.634-0.416-0.096-0.515-0.604   c-0.115-0.602-0.062-0.502-0.018-1.277c0.046-0.85,1.098-0.485,1.301-2.074c0.045-0.303,0.335-1.068,0.657-1.539   c0.314-0.475,0.828-1.662,0.828-2.618c0-0.947-0.237-0.748-0.359-1.58c-0.161-1.178-0.337-0.967-0.392-3.803   c-0.035-2.1-3.999-4.727-6.532-4.16c-3.913,0.871-3.445-0.107-4.602,0.629c-0.861,0.544-1.728,1.749-1.978,2.78   c-0.679,2.754-0.637,3.444-0.637,4.632s-0.192,0.946-0.192,1.899C73.812,57.647,74.326,58.479,74.641,58.956z"/>
</g>
<g id="Your_Icon">
	<path d="M35.029,51.615L20.696,37.184l6.957-7.007l7.58,7.626l20.433-20.548l6.753,6.797L35.029,51.615z"/>
</g>
<polygon points="36.772,59.352 9.379,59.352 9.379,25.007 44.517,25.007 44.517,17.262 3.458,17.262 3.458,67.103 36.772,67.103 "/>
</svg>