<svg xmlns="http://www.w3.org/2000/svg" xmlns:xlink="http://www.w3.org/1999/xlink" version="1.1" id="Layer_1" x="0px" y="0px" width="84.557px" height="100px" viewBox="0 0 84.557 100" enable-background="new 0 0 84.557 100" xml:space="preserve">
<polygon points="84.557,58.587 84.557,100 55.352,100 55.352,92.487 28.841,92.487 28.841,100 0,100 0,58.587 "/>
<path d="M66.334,50.977c-1.152-5.228-3.763-9.59-7.871-13.105c-3.978-3.424-8.691-5.397-14.153-5.924h-0.391v-13.88  c0.339-0.059,0.729-0.104,1.243-0.293c0.723-0.26,1.498-0.56,2.402-0.885c0.886-0.312,1.738-0.573,2.578-0.755  c0.82-0.202,1.413-0.287,1.804-0.287c0.755,0,1.726,0.124,2.852,0.378c1.146,0.286,2.37,0.599,3.606,0.95  c1.289,0.404,2.448,0.71,3.562,0.97c1.067,0.254,1.999,0.358,2.741,0.358c1.178,0,2.435-0.169,3.834-0.54V2.877  c-1.158,0.495-2.415,0.769-3.834,0.769c-0.742,0-1.674-0.117-2.741-0.397c-1.113-0.221-2.272-0.566-3.562-0.95  c-1.236-0.391-2.415-0.684-3.496-0.931C53.815,1.1,52.911,0.97,52.142,0.97c-2.565,0-5.306,0.625-8.223,1.784V0h-3.574v31.947  h-0.208c-5.417,0.527-10.163,2.5-14.141,5.924c-4.03,3.516-6.647,7.877-7.884,13.105c0,0-3.861-0.645-3.861,3.665H70.56  C70.56,50.808,66.334,50.977,66.334,50.977z"/>
</svg>