<svg xmlns:dc="http://purl.org/dc/elements/1.1/" xmlns:cc="http://creativecommons.org/ns#" xmlns:rdf="http://www.w3.org/1999/02/22-rdf-syntax-ns#" xmlns:svg="http://www.w3.org/2000/svg" xmlns="http://www.w3.org/2000/svg" xmlns:sodipodi="http://sodipodi.sourceforge.net/DTD/sodipodi-0.dtd" xmlns:inkscape="http://www.inkscape.org/namespaces/inkscape" width="100" height="100" viewBox="0 0 80 80" version="1.1" id="svg2" inkscape:version="0.48.2 r9819" sodipodi:docname="telephone rotary.svg">
  <metadata id="metadata10">
    <rdf:RDF>
      <cc:Work rdf:about="">
        <dc:format>image/svg+xml</dc:format>
        <dc:type rdf:resource="http://purl.org/dc/dcmitype/StillImage"/>
        <dc:title/>
      </cc:Work>
    </rdf:RDF>
  </metadata>
  <defs id="defs8"/>
  <sodipodi:namedview pagecolor="#ffffff" bordercolor="#666666" borderopacity="1" objecttolerance="10" gridtolerance="10" guidetolerance="10" inkscape:pageopacity="0" inkscape:pageshadow="2" inkscape:window-width="1600" inkscape:window-height="853" id="namedview6" showgrid="true" inkscape:zoom="10.34" inkscape:cx="50.367231" inkscape:cy="54.22677" inkscape:window-x="-4" inkscape:window-y="-4" inkscape:window-maximized="1" inkscape:current-layer="layer4" inkscape:snap-grids="false">
    <inkscape:grid type="xygrid" id="grid6616"/>
  </sodipodi:namedview>
  <g id="g3041" transform="matrix(-0.24587194,0.37331924,-0.37331924,-0.24587194,82.468408,25.122875)" style="fill:#000000;stroke:none"/>
  <g inkscape:groupmode="layer" id="layer4" inkscape:label="draw" style="opacity:1">
    <path style="fill:#000000;stroke:none;display:inline" d="m 55.125,19.53125 c -1.754037,-0.01077 -3.521349,0.01429 -5.28125,0.03125 -14.079209,0.135703 -28.151819,1.123329 -39.5,2.53125 C 4.1912604,29.846426 -2.4190954,43.323025 3.75,51.0625 c 1.9652409,2.465515 20.970556,1.03505 23.3125,-0.34375 5.044396,-2.969854 2.900954,-12.149026 5.15625,-16.78125 0.281425,-0.114737 0.578458,-0.217118 0.875,-0.3125 l 0,-3.09375 c 0,-2.046388 1.732176,-3.0625 3.4375,-3.0625 1.705325,0 3.40625,1.016112 3.40625,3.0625 l 0,2.1875 c 2.927195,-0.0529 6.145353,0.111284 9.5,0.15625 0.449079,-0.01163 0.510745,0 0.75,0 3.564519,-0.04778 6.98323,-0.213648 10.0625,-0.125 l 0,-2.59375 c 0,-2.046298 1.701004,-3.03125 3.40625,-3.03125 1.705246,0 3.4375,0.984952 3.4375,3.03125 l 0,3.65625 c 0.12235,0.04516 0.255463,0.07627 0.375,0.125 2.255296,4.632224 0.08062,13.811396 5.125,16.78125 2.341944,1.3788 21.3785,2.809265 23.34375,0.34375 6.16909,-7.739475 -0.472504,-21.216074 -6.625,-28.96875 -9.899974,-1.706892 -21.909241,-2.487128 -34.1875,-2.5625 z m 8.53125,9.25 c -1.357032,0 -2.71875,0.809061 -2.71875,2.4375 l 0,2.53125 0.03125,0 0,0.125 -21.71875,0 0,-1.53125 0,-1.03125 c 0,-1.628439 -1.361718,-2.4375 -2.71875,-2.4375 -1.357031,0 -2.71875,0.809061 -2.71875,2.4375 l 0,1.03125 0,1.53125 0,5.4375 c 0,0 -0.885697,0.664355 -1.3125,0.96875 -0.0051,0.70233 -0.02498,1.911155 -0.3125,3.625 C 31.79401,46.251736 30.955359,48.991386 29,50.625 l 0.03125,0.03125 c -0.01475,0.01588 -0.04729,0.01574 -0.0625,0.03125 -0.612531,0.624551 -1.593501,0.950399 -2.78125,1.25 -1.217246,0.307043 -2.634283,0.557753 -4,0.71875 -2.063079,0.243207 -3.649172,0.336676 -4.46875,0.375 -2.467617,2.672729 -4.56417,5.438931 -5.625,8 -2.7696725,6.686584 0,18.303657 0,21.71875 0,5.428129 76,5.428129 76,0 0,-3.712056 2.769675,-15.032167 0,-21.71875 -1.046851,-2.527325 -3.106364,-5.266351 -5.53125,-7.90625 -0.650447,-0.02771 -2.421385,-0.107854 -4.6875,-0.375 -1.365718,-0.160998 -2.782753,-0.411708 -4,-0.71875 -1.187748,-0.299601 -2.168719,-0.625447 -2.78125,-1.25 -0.01521,-0.01551 -0.04775,-0.01537 -0.0625,-0.03125 L 71.0625,50.71875 C 69.107136,49.085136 68.268486,46.345486 67.875,44 67.55599,42.09846 67.528884,40.731968 67.53125,40.15625 67.196899,39.918879 66.375,39.3125 66.375,39.3125 l 0,-5.5625 0,-1.40625 0,-1.125 c 0,-1.628439 -1.361717,-2.4375 -2.71875,-2.4375 z M 50.09375,45.5625 c 9.425467,0 17.0625,7.819056 17.0625,17.375 0,9.555945 -7.637033,17.375 -17.0625,17.375 -9.425464,0 -17.0625,-7.819055 -17.0625,-17.375 0,-9.555944 7.637036,-17.375 17.0625,-17.375 z m 0,3.25 c -7.631467,0 -13.8125,6.295993 -13.8125,14.125 0,7.829008 6.181032,14.09375 13.8125,14.09375 7.631469,0 13.8125,-6.264742 13.8125,-14.09375 0,-7.829008 -6.18103,-14.125 -13.8125,-14.125 z" transform="scale(0.8,0.8)" id="path6618" inkscape:connector-curvature="0" sodipodi:nodetypes="sscssccsssccccsssccsscssscccccsssccccscccsscsssscsssccsccccssssssssssss"/>
  </g>
</svg>